# Made in Blockbench 5.1.4
mtllib altar_pillar.mtl

o cube
v -0.12421361087499905 1.1823445819999991 -0.0723967293749993
v -0.12421361087499905 1.1823445819999991 -0.645907689375
v -0.12421361087499905 0.9072278423749995 -0.0723967293749993
v -0.12421361087499905 0.9072278423749995 -0.645907689375
v -0.6848945612500001 1.1823445819999991 -0.645907689375
v -0.6848945612500001 1.1823445819999991 -0.0723967293749993
v -0.6848945612500001 0.9072278423749995 -0.645907689375
v -0.6848945612500001 0.9072278423749995 -0.0723967293749993
vt 0 0.375
vt 0.5625 0.375
vt 0.5625 0.125
vt 0 0.125
vt 0 0.375
vt 0.5625 0.375
vt 0.5625 0.125
vt 0 0.125
vt 0 0.375
vt 0.5625 0.375
vt 0.5625 0.125
vt 0 0.125
vt 0 0.375
vt 0.5625 0.375
vt 0.5625 0.125
vt 0 0.125
vt 0.5625 0.4375
vt 0 0.4375
vt 0 1
vt 0.5625 1
vt 0.5625 1
vt 0 1
vt 0 0.4375
vt 0.5625 0.4375
vn 0 0 -1
vn 1 0 0
vn 0 0 1
vn -1 0 0
vn 0 1 0
vn 0 -1 0
usemtl m_bd13161c-c250-c002-5b4e-3820a70e17ab
f 4/4/1 7/3/1 5/2/1 2/1/1
f 3/8/2 4/7/2 2/6/2 1/5/2
f 8/12/3 3/11/3 1/10/3 6/9/3
f 7/16/4 8/15/4 6/14/4 5/13/4
f 6/20/5 1/19/5 2/18/5 5/17/5
f 7/24/6 4/23/6 3/22/6 8/21/6
o cube
v 0.5062500000000001 -0.5062500000000001 0.5
v 0.5062500000000001 -0.5062500000000001 -0.5
v 0.5062500000000001 -1 0.5
v 0.5062500000000001 -1 -0.5
v -0.5 -0.5062500000000001 -0.5
v -0.5 -0.5062500000000001 0.5
v -0.5 -1 -0.5
v -0.5 -1 0.5
vt 0 0.375
vt 0.5625 0.375
vt 0.5625 0.125
vt 0 0.125
vt 0 0.375
vt 0.5625 0.375
vt 0.5625 0.125
vt 0 0.125
vt 0 0.375
vt 0.5625 0.375
vt 0.5625 0.125
vt 0 0.125
vt 0 0.375
vt 0.5625 0.375
vt 0.5625 0.125
vt 0 0.125
vt 0.5625 0.4375
vt 0 0.4375
vt 0 1
vt 0.5625 1
vt 0.5625 1
vt 0 1
vt 0 0.4375
vt 0.5625 0.4375
vn 0 0 -1
vn 1 0 0
vn 0 0 1
vn -1 0 0
vn 0 1 0
vn 0 -1 0
usemtl m_bd13161c-c250-c002-5b4e-3820a70e17ab
f 12/28/7 15/27/7 13/26/7 10/25/7
f 11/32/8 12/31/8 10/30/8 9/29/8
f 16/36/9 11/35/9 9/34/9 14/33/9
f 15/40/10 16/39/10 14/38/10 13/37/10
f 14/44/11 9/43/11 10/42/11 13/41/11
f 15/48/12 12/47/12 11/46/12 16/45/12
o cube
v 0.4282500000000003 -0.07975000000000018 0.4162500000000001
v 0.4282500000000003 -0.07975000000000018 -0.50375
v 0.4282500000000003 -0.5340000000000003 0.4162500000000001
v 0.4282500000000003 -0.5340000000000003 -0.50375
v -0.4975 -0.07975000000000018 -0.50375
v -0.4975 -0.07975000000000018 0.4162500000000001
v -0.4975 -0.5340000000000003 -0.50375
v -0.4975 -0.5340000000000003 0.4162500000000001
vt 0 0.375
vt 0.5625 0.375
vt 0.5625 0.125
vt 0 0.125
vt 0 0.375
vt 0.5625 0.375
vt 0.5625 0.125
vt 0 0.125
vt 0 0.375
vt 0.5625 0.375
vt 0.5625 0.125
vt 0 0.125
vt 0 0.375
vt 0.5625 0.375
vt 0.5625 0.125
vt 0 0.125
vt 0.5625 0.4375
vt 0 0.4375
vt 0 1
vt 0.5625 1
vt 0.5625 1
vt 0 1
vt 0 0.4375
vt 0.5625 0.4375
vn 0 0 -1
vn 1 0 0
vn 0 0 1
vn -1 0 0
vn 0 1 0
vn 0 -1 0
usemtl m_bd13161c-c250-c002-5b4e-3820a70e17ab
f 20/52/13 23/51/13 21/50/13 18/49/13
f 19/56/14 20/55/14 18/54/14 17/53/14
f 24/60/15 19/59/15 17/58/15 22/57/15
f 23/64/16 24/63/16 22/62/16 21/61/16
f 22/68/17 17/67/17 18/66/17 21/65/17
f 23/72/18 20/71/18 19/70/18 24/69/18
o cube
v 0.12218887500000075 0.646904 0.14946937500000068
v 0.12218887500000075 0.646904 -0.562150625
v 0.12218887500000075 0.2955416249999999 0.14946937500000068
v 0.12218887500000075 0.2955416249999999 -0.562150625
v -0.5938787499999999 0.646904 -0.562150625
v -0.5938787499999999 0.646904 0.14946937500000068
v -0.5938787499999999 0.2955416249999999 -0.562150625
v -0.5938787499999999 0.2955416249999999 0.14946937500000068
vt 0 0.375
vt 0.5625 0.375
vt 0.5625 0.125
vt 0 0.125
vt 0 0.375
vt 0.5625 0.375
vt 0.5625 0.125
vt 0 0.125
vt 0 0.375
vt 0.5625 0.375
vt 0.5625 0.125
vt 0 0.125
vt 0 0.375
vt 0.5625 0.375
vt 0.5625 0.125
vt 0 0.125
vt 0.5625 0.4375
vt 0 0.4375
vt 0 1
vt 0.5625 1
vt 0.5625 1
vt 0 1
vt 0 0.4375
vt 0.5625 0.4375
vn 0 0 -1
vn 1 0 0
vn 0 0 1
vn -1 0 0
vn 0 1 0
vn 0 -1 0
usemtl m_bd13161c-c250-c002-5b4e-3820a70e17ab
f 28/76/19 31/75/19 29/74/19 26/73/19
f 27/80/20 28/79/20 26/78/20 25/77/20
f 32/84/21 27/83/21 25/82/21 30/81/21
f 31/88/22 32/87/22 30/86/22 29/85/22
f 30/92/23 25/91/23 26/90/23 29/89/23
f 31/96/24 28/95/24 27/94/24 32/93/24
o cube
v 0.2834575000000006 0.30848999999999993 0.28503750000000005
v 0.2834575000000006 0.30848999999999993 -0.5521625000000001
v 0.2834575000000006 -0.10487750000000007 0.28503750000000005
v 0.2834575000000006 -0.10487750000000007 -0.5521625000000001
v -0.558975 0.30848999999999993 -0.5521625000000001
v -0.558975 0.30848999999999993 0.28503750000000005
v -0.558975 -0.10487750000000007 -0.5521625000000001
v -0.558975 -0.10487750000000007 0.28503750000000005
vt 0 0.375
vt 0.5625 0.375
vt 0.5625 0.125
vt 0 0.125
vt 0 0.375
vt 0.5625 0.375
vt 0.5625 0.125
vt 0 0.125
vt 0 0.375
vt 0.5625 0.375
vt 0.5625 0.125
vt 0 0.125
vt 0 0.375
vt 0.5625 0.375
vt 0.5625 0.125
vt 0 0.125
vt 0.5625 0.4375
vt 0 0.4375
vt 0 1
vt 0.5625 1
vt 0.5625 1
vt 0 1
vt 0 0.4375
vt 0.5625 0.4375
vn 0 0 -1
vn 1 0 0
vn 0 0 1
vn -1 0 0
vn 0 1 0
vn 0 -1 0
usemtl m_bd13161c-c250-c002-5b4e-3820a70e17ab
f 36/100/25 39/99/25 37/98/25 34/97/25
f 35/104/26 36/103/26 34/102/26 33/101/26
f 40/108/27 35/107/27 33/106/27 38/105/27
f 39/112/28 40/111/28 38/110/28 37/109/28
f 38/116/29 33/115/29 34/114/29 37/113/29
f 39/120/30 36/119/30 35/118/30 40/117/30
o cube
v -0.006280012499998877 0.9028385999999992 0.06764743750000035
v -0.006280012499998877 0.9028385999999992 -0.5915605625
v -0.006280012499998877 0.5866124624999992 0.06764743750000035
v -0.006280012499998877 0.5866124624999992 -0.5915605625
v -0.6507408750000001 0.9028385999999992 -0.5915605625
v -0.6507408750000001 0.9028385999999992 0.06764743750000035
v -0.6507408750000001 0.5866124624999992 -0.5915605625
v -0.6507408750000001 0.5866124624999992 0.06764743750000035
vt 0 0.375
vt 0.5625 0.375
vt 0.5625 0.125
vt 0 0.125
vt 0 0.375
vt 0.5625 0.375
vt 0.5625 0.125
vt 0 0.125
vt 0 0.375
vt 0.5625 0.375
vt 0.5625 0.125
vt 0 0.125
vt 0 0.375
vt 0.5625 0.375
vt 0.5625 0.125
vt 0 0.125
vt 0.5625 0.4375
vt 0 0.4375
vt 0 1
vt 0.5625 1
vt 0.5625 1
vt 0 1
vt 0 0.4375
vt 0.5625 0.4375
vn 0 0 -1
vn 1 0 0
vn 0 0 1
vn -1 0 0
vn 0 1 0
vn 0 -1 0
usemtl m_bd13161c-c250-c002-5b4e-3820a70e17ab
f 44/124/31 47/123/31 45/122/31 42/121/31
f 43/128/32 44/127/32 42/126/32 41/125/32
f 48/132/33 43/131/33 41/130/33 46/129/33
f 47/136/34 48/135/34 46/134/34 45/133/34
f 46/140/35 41/139/35 42/138/35 45/137/35
f 47/144/36 44/143/36 43/142/36 48/141/36
o cube
v 0.9112924977207248 0.33257690818237706 0.45811644887293973
v 0.9271305000402416 0.37081322818305085 0.39188389256312284
v 0.26043650166330923 -0.16857314982406674 0.013163175083154559
v 0.27627450398282594 -0.13033682982339298 -0.053069381226662306
v 0.8708670958877085 0.4270197055232945 0.41087800963050214
v 0.8550290935681918 0.3887833855226207 0.47711056594031903
v 0.22001109983029293 -0.07413035248314931 -0.034075264159283025
v 0.20417309751077622 -0.11236667248382308 0.03215729215053384
vt 0 0.375
vt 0.5625 0.375
vt 0.5625 0.125
vt 0 0.125
vt 0 1
vt 0.5625 1
vt 0.5625 0.4375
vt 0 0.4375
vt 0 0.375
vt 0.5625 0.375
vt 0.5625 0.125
vt 0 0.125
vt 0 1
vt 0.5625 1
vt 0.5625 0.4375
vt 0 0.4375
vt 0.5625 0.125
vt 0 0.125
vt 0 0.375
vt 0.5625 0.375
vt 0.5625 0.375
vt 0 0.375
vt 0 0.125
vt 0.5625 0.125
vn 0.20279132291314597 0.4895815621084987 -0.8480480961564257
vn 0.6881111007464495 -0.6874148760501935 -0.23230131556753408
vn -0.20279132291314597 -0.4895815621084987 0.8480480961564257
vn -0.6881111007464495 0.6874148760501935 0.23230131556753408
vn 0.6966913178593845 0.5364426178337244 0.47628827971204024
vn -0.6966913178593845 -0.5364426178337244 -0.47628827971204024
usemtl m_bd13161c-c250-c002-5b4e-3820a70e17ab
f 52/148/37 55/147/37 53/146/37 50/145/37
f 51/152/38 52/151/38 50/150/38 49/149/38
f 56/156/39 51/155/39 49/154/39 54/153/39
f 55/160/40 56/159/40 54/158/40 53/157/40
f 54/164/41 49/163/41 50/162/41 53/161/41
f 55/168/42 52/167/42 51/166/42 56/165/42
o cube
v 0.07614411779881669 0.7528997343449116 0.6843346050284833
v 0.07614411779881669 0.7875708533171888 0.6006311193829605
v 0.07614411779881669 -0.11019776372245688 0.32682791567869307
v 0.07614411779881669 -0.07552664475017973 0.24312443003317036
v -0.005620882201182897 0.7875708533171888 0.6006311193829605
v -0.005620882201182897 0.7528997343449116 0.6843346050284833
v -0.005620882201182897 -0.07552664475017973 0.24312443003317036
v -0.005620882201182897 -0.11019776372245688 0.32682791567869307
vt 0 0.375
vt 0.5625 0.375
vt 0.5625 0.125
vt 0 0.125
vt 0 1
vt 0.5625 1
vt 0.5625 0.4375
vt 0 0.4375
vt 0 0.375
vt 0.5625 0.375
vt 0.5625 0.125
vt 0 0.125
vt 0 1
vt 0.5625 1
vt 0.5625 0.4375
vt 0 0.4375
vt 0.5625 0.125
vt 0 0.125
vt 0 0.375
vt 0.5625 0.375
vt 0.5625 0.375
vt 0 0.375
vt 0 0.125
vt 0.5625 0.125
vn 0 0.3826834323650897 -0.9238795325112867
vn 1 0 0
vn 0 -0.3826834323650897 0.9238795325112867
vn -1 0 0
vn 0 0.9238795325112867 0.3826834323650897
vn 0 -0.9238795325112867 -0.3826834323650897
usemtl m_bd13161c-c250-c002-5b4e-3820a70e17ab
f 60/172/43 63/171/43 61/170/43 58/169/43
f 59/176/44 60/175/44 58/174/44 57/173/44
f 64/180/45 59/179/45 57/178/45 62/177/45
f 63/184/46 64/183/46 62/182/46 61/181/46
f 62/188/47 57/187/47 58/186/47 61/185/47
f 63/192/48 60/191/48 59/190/48 64/189/48
o cube
v -0.5113558822011828 1.5234223219990455 0.24383146146002924
v -0.5113558822011828 1.5580934409713227 0.16012797581450663
v -0.5113558822011828 0.8335522362775432 -0.0419220843213067
v -0.5113558822011828 0.8682233552498203 -0.12562556996682928
v -0.5931208822011822 1.5580934409713227 0.16012797581450663
v -0.5931208822011822 1.5234223219990455 0.24383146146002924
v -0.5931208822011822 0.8682233552498203 -0.12562556996682928
v -0.5931208822011822 0.8335522362775432 -0.0419220843213067
vt 0 0.375
vt 0.5625 0.375
vt 0.5625 0.125
vt 0 0.125
vt 0 1
vt 0.5625 1
vt 0.5625 0.4375
vt 0 0.4375
vt 0 0.375
vt 0.5625 0.375
vt 0.5625 0.125
vt 0 0.125
vt 0 1
vt 0.5625 1
vt 0.5625 0.4375
vt 0 0.4375
vt 0.5625 0.125
vt 0 0.125
vt 0 0.375
vt 0.5625 0.375
vt 0.5625 0.375
vt 0 0.375
vt 0 0.125
vt 0.5625 0.125
vn 0 0.3826834323650897 -0.9238795325112867
vn 1 0 0
vn 0 -0.3826834323650897 0.9238795325112867
vn -1 0 0
vn 0 0.9238795325112867 0.3826834323650897
vn 0 -0.9238795325112867 -0.3826834323650897
usemtl m_bd13161c-c250-c002-5b4e-3820a70e17ab
f 68/196/49 71/195/49 69/194/49 66/193/49
f 67/200/50 68/199/50 66/198/50 65/197/50
f 72/204/51 67/203/51 65/202/51 70/201/51
f 71/208/52 72/207/52 70/206/52 69/205/52
f 70/212/53 65/211/53 66/210/53 69/209/53
f 71/216/54 68/215/54 67/214/54 72/213/54
o cube
v 0.0532178286043298 1.4384022061169397 0.29313922782910057
v 0.06051915246698661 1.4950828685352258 0.22283735603554955
v -0.26526151421407484 0.929164173771613 -0.1505085589466439
v -0.25796019035141804 0.9858448361898993 -0.22081043074019485
v -0.013141748164361283 1.526058303503914 0.24016102111194737
v -0.02044307202701809 1.4693776410856279 0.31046289290549833
v -0.33162109098276593 1.0168202711585872 -0.20348676566379703
v -0.33892241484542274 0.9601396087403011 -0.13318489387024607
vt 0 0.375
vt 0.5625 0.375
vt 0.5625 0.125
vt 0 0.125
vt 0 1
vt 0.5625 1
vt 0.5625 0.4375
vt 0 0.4375
vt 0 0.375
vt 0.5625 0.375
vt 0.5625 0.125
vt 0 0.125
vt 0 1
vt 0.5625 1
vt 0.5625 0.4375
vt 0 0.4375
vt 0.5625 0.125
vt 0 0.125
vt 0 0.375
vt 0.5625 0.375
vt 0.5625 0.375
vt 0 0.375
vt 0 0.125
vt 0.5625 0.125
vn 0.0805885636054835 0.6256143754777724 -0.7759588498184435
vn 0.9008854721622728 -0.37883489229729395 -0.2118714006775255
vn -0.0805885636054835 -0.6256143754777724 0.7759588498184435
vn -0.9008854721622728 0.37883489229729395 0.2118714006775255
vn 0.4265100813145732 0.681975642947499 0.5941366618576753
vn -0.4265100813145732 -0.681975642947499 -0.5941366618576753
usemtl m_bd13161c-c250-c002-5b4e-3820a70e17ab
f 76/220/55 79/219/55 77/218/55 74/217/55
f 75/224/56 76/223/56 74/222/56 73/221/56
f 80/228/57 75/227/57 73/226/57 78/225/57
f 79/232/58 80/231/58 78/230/58 77/229/58
f 78/236/59 73/235/59 74/234/59 77/233/59
f 79/240/60 76/239/60 75/238/60 80/237/60
o cube
v 0.08628232389315035 1.5107621973478276 -0.23757499999999976
v 0.08628232389315035 1.5107621973478276 -0.3281749999999998
v -0.19947122188818558 0.8208921116263252 -0.23757499999999976
v -0.19947122188818558 0.8208921116263252 -0.3281749999999998
v 0.010741313917365367 1.542052308195159 -0.3281749999999998
v 0.010741313917365367 1.542052308195159 -0.23757499999999976
v -0.27501223186397056 0.8521822224736566 -0.3281749999999998
v -0.27501223186397056 0.8521822224736566 -0.23757499999999976
vt 0 0.375
vt 0.5625 0.375
vt 0.5625 0.125
vt 0 0.125
vt 0 1
vt 0.5625 1
vt 0.5625 0.4375
vt 0 0.4375
vt 0 0.375
vt 0.5625 0.375
vt 0.5625 0.125
vt 0 0.125
vt 0 1
vt 0.5625 1
vt 0.5625 0.4375
vt 0 0.4375
vt 0.5625 0.125
vt 0 0.125
vt 0 0.375
vt 0.5625 0.375
vt 0.5625 0.375
vt 0 0.375
vt 0 0.125
vt 0.5625 0.125
vn 0 0 -1
vn 0.9238795325112867 -0.3826834323650897 0
vn 0 0 1
vn -0.9238795325112867 0.3826834323650897 0
vn 0.3826834323650897 0.9238795325112867 0
vn -0.3826834323650897 -0.9238795325112867 0
usemtl m_bd13161c-c250-c002-5b4e-3820a70e17ab
f 84/244/61 87/243/61 85/242/61 82/241/61
f 83/248/62 84/247/62 82/246/62 81/245/62
f 88/252/63 83/251/63 81/250/63 86/249/63
f 87/256/64 88/255/64 86/254/64 85/253/64
f 86/260/65 81/259/65 82/258/65 85/257/65
f 87/264/66 84/263/66 83/262/66 88/261/66